<?xml version="1.0" encoding="utf-8"?>
<!-- Generator: Adobe Illustrator 16.0.1, SVG Export Plug-In . SVG Version: 6.00 Build 0)  -->
<!DOCTYPE svg PUBLIC "-//W3C//DTD SVG 1.1//EN" "http://www.w3.org/Graphics/SVG/1.1/DTD/svg11.dtd">
<svg version="1.1" id="Layer_1" xmlns="http://www.w3.org/2000/svg" xmlns:xlink="http://www.w3.org/1999/xlink" x="0px" y="0px"
	 width="54px" height="54px" viewBox="0 0 54 54" enable-background="new 0 0 54 54" xml:space="preserve">
<g id="Layer_2" display="none">
	<circle display="inline" fill="none" stroke="#3EAF5B" stroke-miterlimit="10" cx="26.704" cy="26.766" r="27"/>
</g>
<g id="Layer_1_1_" display="none">
	<g display="inline">
		<path fill="#43A5DC" d="M49.234,12.854c-0.776,0-1.407,0.638-1.407,1.421v25.452c0,0.783,0.631,1.418,1.407,1.418
			c0.773,0,1.408-0.635,1.408-1.418V14.275C50.645,13.492,50.012,12.854,49.234,12.854"/>
		<path fill="#43A5DC" d="M35.605,12.854c-0.778,0-1.41,0.638-1.41,1.421V35.09c0,0.782,0.632,1.42,1.41,1.42
			c0.773,0,1.406-0.638,1.406-1.42V14.275C37.014,13.492,36.382,12.854,35.605,12.854"/>
		<path fill="#43A5DC" d="M27.363,12.854c-0.777,0-1.409,0.638-1.409,1.421V35.09c0,0.782,0.632,1.42,1.409,1.42
			c0.778,0,1.409-0.638,1.409-1.42V14.275C28.771,13.492,28.143,12.854,27.363,12.854"/>
		<path fill="#43A5DC" d="M4.425,12.854c-0.778,0-1.41,0.638-1.41,1.421v25.452c0,0.783,0.632,1.418,1.41,1.418
			c0.777,0,1.409-0.635,1.409-1.418V14.275C5.834,13.492,5.202,12.854,4.425,12.854"/>
		<path fill="#43A5DC" d="M10.528,12.854c-0.777,0-1.41,0.638-1.41,1.421v25.452c0,0.783,0.633,1.418,1.41,1.418
			c0.776,0,1.409-0.635,1.409-1.418V14.275C11.938,13.492,11.305,12.854,10.528,12.854"/>
		<path fill="#43A5DC" d="M43.132,13.004h-1.424c-0.776,0-1.41,0.638-1.41,1.421v20.513c0,0.783,0.634,1.422,1.41,1.422h1.424
			c0.779,0,1.408-0.639,1.408-1.422V14.426C44.54,13.643,43.911,13.004,43.132,13.004"/>
		<path fill="#43A5DC" d="M18.998,13.004h-2.362c-0.78,0-1.414,0.638-1.414,1.421v20.513c0,0.783,0.634,1.422,1.414,1.422h2.362
			c0.779,0,1.411-0.639,1.411-1.422V14.426C20.409,13.643,19.777,13.004,18.998,13.004"/>
	</g>
</g>
<g id="Layer_3">
	<path fill="#253B56" d="M47.852,41.136l-9.459-9.46c-0.037-0.043-0.098-0.072-0.136-0.113c3.979-6.958,3.022-15.979-2.919-21.921
		c-7.12-7.119-18.646-7.119-25.763,0c-7.111,7.116-7.111,18.648,0,25.761c5.942,5.947,14.962,6.904,21.917,2.918
		c0.044,0.051,0.076,0.102,0.121,0.146l9.453,9.456c1.759,1.751,4.619,1.751,6.371,0l0.412-0.412
		C49.605,45.755,49.605,42.889,47.852,41.136z M15.365,29.613c-3.926-3.92-3.926-10.266,0-14.19c3.915-3.915,10.269-3.915,14.185,0
		c3.915,3.925,3.915,10.271,0,14.19C25.634,33.529,19.28,33.529,15.365,29.613z"/>
</g>
</svg>
